<?xml version="1.0" standalone="no"?>
<!DOCTYPE svg PUBLIC "-//W3C//DTD SVG 20010904//EN"
 "http://www.w3.org/TR/2001/REC-SVG-20010904/DTD/svg10.dtd">
<svg version="1.0" xmlns="http://www.w3.org/2000/svg"
 width="1080.000000pt" height="1080.000000pt" viewBox="0 0 1080.000000 1080.000000"
 preserveAspectRatio="xMidYMid meet">
<metadata>
Created by potrace 1.14, written by Peter Selinger 2001-2017
</metadata>
<g transform="translate(0.000000,1080.000000) scale(0.100000,-0.100000)"
fill="#000000" stroke="none">
<path d="M0 5400 l0 -5400 5400 0 5400 0 0 5400 0 5400 -5400 0 -5400 0 0
-5400z m5649 1785 c282 -40 560 -150 791 -313 123 -87 345 -309 432 -432 216
-306 328 -662 328 -1040 0 -378 -112 -734 -328 -1040 -87 -123 -309 -345 -432
-432 -306 -216 -662 -328 -1040 -328 -303 0 -572 66 -840 206 -161 84 -280
174 -430 324 -150 150 -240 269 -324 430 -140 268 -206 537 -206 840 0 378
112 734 328 1040 87 123 309 345 432 432 227 160 509 272 782 312 127 19 379
19 507 1z"/>
</g>
</svg>
